<mxfile host="app.diagrams.net" agent="Mozilla/5.0 (Windows NT 10.0; Win64; x64) AppleWebKit/537.36 (KHTML, like Gecko) Chrome/134.0.0.0 Safari/537.36" version="26.0.2">
  <diagram name="Trang-1" id="r1I36P6T-QeI0PhF2iuA">
    <mxGraphModel dx="841" dy="484" grid="0" gridSize="10" guides="1" tooltips="1" connect="1" arrows="1" fold="1" page="1" pageScale="1" pageWidth="827" pageHeight="1169" math="0" shadow="0">
      <root>
        <mxCell id="0" />
        <mxCell id="1" parent="0" />
        <mxCell id="oJngLNrIB7KPkl9L6WJc-16" value="" style="edgeStyle=orthogonalEdgeStyle;rounded=0;orthogonalLoop=1;jettySize=auto;html=1;" parent="1" source="oJngLNrIB7KPkl9L6WJc-1" target="oJngLNrIB7KPkl9L6WJc-2" edge="1">
          <mxGeometry relative="1" as="geometry">
            <Array as="points">
              <mxPoint x="396" y="144" />
              <mxPoint x="396" y="144" />
            </Array>
          </mxGeometry>
        </mxCell>
        <mxCell id="oJngLNrIB7KPkl9L6WJc-1" value="BẮT ĐẦU&amp;nbsp;" style="ellipse;whiteSpace=wrap;html=1;" parent="1" vertex="1">
          <mxGeometry x="331" y="59" width="134" height="61" as="geometry" />
        </mxCell>
        <mxCell id="oJngLNrIB7KPkl9L6WJc-8" value="" style="edgeStyle=orthogonalEdgeStyle;rounded=0;orthogonalLoop=1;jettySize=auto;html=1;" parent="1" source="oJngLNrIB7KPkl9L6WJc-2" target="oJngLNrIB7KPkl9L6WJc-3" edge="1">
          <mxGeometry relative="1" as="geometry">
            <Array as="points">
              <mxPoint x="388" y="279" />
              <mxPoint x="388" y="279" />
            </Array>
          </mxGeometry>
        </mxCell>
        <mxCell id="oJngLNrIB7KPkl9L6WJc-2" value="Nhập điểm số&amp;nbsp;" style="shape=parallelogram;perimeter=parallelogramPerimeter;whiteSpace=wrap;html=1;fixedSize=1;" parent="1" vertex="1">
          <mxGeometry x="321" y="190" width="150" height="45" as="geometry" />
        </mxCell>
        <mxCell id="oJngLNrIB7KPkl9L6WJc-11" value="" style="edgeStyle=orthogonalEdgeStyle;rounded=0;orthogonalLoop=1;jettySize=auto;html=1;" parent="1" source="oJngLNrIB7KPkl9L6WJc-3" target="oJngLNrIB7KPkl9L6WJc-5" edge="1">
          <mxGeometry relative="1" as="geometry" />
        </mxCell>
        <mxCell id="oJngLNrIB7KPkl9L6WJc-3" value="Kiểm tra a &amp;gt;= 5 ?" style="rounded=0;whiteSpace=wrap;html=1;" parent="1" vertex="1">
          <mxGeometry x="321" y="300" width="120" height="60" as="geometry" />
        </mxCell>
        <mxCell id="oJngLNrIB7KPkl9L6WJc-23" value="" style="edgeStyle=orthogonalEdgeStyle;rounded=0;orthogonalLoop=1;jettySize=auto;html=1;" parent="1" source="oJngLNrIB7KPkl9L6WJc-5" target="oJngLNrIB7KPkl9L6WJc-18" edge="1">
          <mxGeometry relative="1" as="geometry" />
        </mxCell>
        <mxCell id="oJngLNrIB7KPkl9L6WJc-5" value="Xếp loại&amp;nbsp;&lt;div&gt;&quot;Đạt&quot;&lt;/div&gt;" style="rhombus;whiteSpace=wrap;html=1;direction=west;" parent="1" vertex="1">
          <mxGeometry x="205" y="416" width="139" height="69" as="geometry" />
        </mxCell>
        <mxCell id="oJngLNrIB7KPkl9L6WJc-24" value="" style="edgeStyle=orthogonalEdgeStyle;rounded=0;orthogonalLoop=1;jettySize=auto;html=1;" parent="1" source="oJngLNrIB7KPkl9L6WJc-6" target="oJngLNrIB7KPkl9L6WJc-18" edge="1">
          <mxGeometry relative="1" as="geometry" />
        </mxCell>
        <mxCell id="oJngLNrIB7KPkl9L6WJc-6" value="Xếp loại&amp;nbsp;&lt;div&gt;&quot;Không đạt&quot;&lt;/div&gt;" style="rhombus;whiteSpace=wrap;html=1;" parent="1" vertex="1">
          <mxGeometry x="420" y="416" width="139" height="69" as="geometry" />
        </mxCell>
        <mxCell id="oJngLNrIB7KPkl9L6WJc-14" value="" style="edgeStyle=orthogonalEdgeStyle;rounded=0;orthogonalLoop=1;jettySize=auto;html=1;" parent="1" target="oJngLNrIB7KPkl9L6WJc-6" edge="1">
          <mxGeometry relative="1" as="geometry">
            <mxPoint x="381" y="388" as="sourcePoint" />
            <mxPoint x="285" y="426" as="targetPoint" />
          </mxGeometry>
        </mxCell>
        <mxCell id="oJngLNrIB7KPkl9L6WJc-18" value="Kết thúc&amp;nbsp;" style="ellipse;whiteSpace=wrap;html=1;" parent="1" vertex="1">
          <mxGeometry x="312" y="545" width="146" height="51" as="geometry" />
        </mxCell>
      </root>
    </mxGraphModel>
  </diagram>
</mxfile>
